HIERARCHY
ROOT root
{
	OFFSET 0.000000 0.000000 0.000000
	CHANNELS 6 Xposition Yposition Zposition Zrotation Yrotation Xrotation
	JOINT lhip
	{
		OFFSET 0.058581 -0.082280 -0.017664
		CHANNELS 3 Zrotation Yrotation Xrotation
		JOINT lknee
		{
			OFFSET 0.043451 -0.386469 0.008037
			CHANNELS 3 Zrotation Yrotation Xrotation
			JOINT lankle
			{
				OFFSET -0.014790 -0.426874 -0.037428
				CHANNELS 3 Zrotation Yrotation Xrotation
				JOINT ltoe
				{
					OFFSET 0.041054 -0.060286 0.122042
					CHANNELS 3 Zrotation Yrotation Xrotation
					End Site
					{
						OFFSET 0.000000 0.000000 0.000000
					}
				}
			}
		}
	}
	JOINT rhip
	{
		OFFSET -0.060310 -0.090513 -0.013543
		CHANNELS 3 Zrotation Yrotation Xrotation
		JOINT rknee
		{
			OFFSET -0.043257 -0.383688 -0.004843
			CHANNELS 3 Zrotation Yrotation Xrotation
			JOINT rankle
			{
				OFFSET 0.019056 -0.420046 -0.034562
				CHANNELS 3 Zrotation Yrotation Xrotation
				JOINT rtoe
				{
					OFFSET -0.034840 -0.062106 0.130323
					CHANNELS 3 Zrotation Yrotation Xrotation
					End Site
					{
						OFFSET 0.000000 0.000000 0.000000
					}
				}
			}
		}
	}
	JOINT lowerback
	{
		OFFSET 0.004439 0.124404 -0.038385
		CHANNELS 3 Zrotation Yrotation Xrotation
		JOINT upperback
		{
			OFFSET 0.004488 0.137956 0.026820
			CHANNELS 3 Zrotation Yrotation Xrotation
			JOINT chest
			{
				OFFSET -0.002265 0.056032 0.002855
				CHANNELS 3 Zrotation Yrotation Xrotation
				JOINT lowerneck
				{
					OFFSET -0.013390 0.211636 -0.033468
					CHANNELS 3 Zrotation Yrotation Xrotation
					JOINT upperneck
					{
						OFFSET 0.010113 0.088937 0.050410
						CHANNELS 3 Zrotation Yrotation Xrotation
						End Site
						{
							OFFSET 0.000000 0.000000 0.000000
						}
					}
				}
				JOINT lclavicle
				{
					OFFSET 0.071702 0.114000 -0.018898
					CHANNELS 3 Zrotation Yrotation Xrotation
					JOINT lshoulder
					{
						OFFSET 0.122921 0.045205 -0.019046
						CHANNELS 3 Zrotation Yrotation Xrotation
						JOINT lelbow
						{
							OFFSET 0.255332 -0.015649 -0.022946
							CHANNELS 3 Zrotation Yrotation Xrotation
							JOINT lwrist
							{
								OFFSET 0.265709 0.012698 -0.007375
								CHANNELS 3 Zrotation Yrotation Xrotation
								End Site
								{
									OFFSET 0.000000 0.000000 0.000000
								}
							}
						}
					}
				}
				JOINT rclavicle
				{
					OFFSET -0.082954 0.112472 -0.023707
					CHANNELS 3 Zrotation Yrotation Xrotation
					JOINT rshoulder
					{
						OFFSET -0.113228 0.046853 -0.008472
						CHANNELS 3 Zrotation Yrotation Xrotation
						JOINT relbow
						{
							OFFSET -0.260127 -0.014369 -0.031269
							CHANNELS 3 Zrotation Yrotation Xrotation
							JOINT rwrist
							{
								OFFSET -0.269108 0.006794 -0.006027
								CHANNELS 3 Zrotation Yrotation Xrotation
								End Site
								{
									OFFSET 0.000000 0.000000 0.000000
								}
							}
						}
					}
				}
			}
		}
	}
}
MOTION
Frames: 10
Frame Time: 0.033333
0.321398 2.039892 0.954928 -1.329603 -4.092673 78.497043 -12.346557 -9.709494 -1.428191 -6.667713 -9.343460 19.360010 16.103964 17.977082 -20.814157 0.000000 -0.000000 0.000000 -10.182152 1.952795 -25.027385 4.036674 -5.148918 92.136921 5.446002 -12.691104 17.988916 0.000000 -0.000000 0.000000 -2.825507 -2.463973 15.096060 -0.158479 -0.398029 -1.823713 -2.202491 -1.851636 2.437241 1.037015 1.064806 -13.823687 1.568794 3.344855 0.350076 -23.834137 -2.381618 1.103974 -53.499573 -12.470949 15.444743 13.324024 -57.444880 4.015818 -2.147516 -11.798296 -9.587081 22.321763 -0.159064 -2.993875 54.837688 -1.588190 17.271051 -10.054332 30.769516 1.341848 16.203191 4.986657 0.275854 
0.320286 2.014614 0.966766 1.778183 -1.360295 75.142960 -11.156803 -7.622373 6.213337 -5.614145 -15.394238 16.236398 15.251540 19.172936 -20.802719 0.000000 -0.000000 0.000000 -10.533483 2.065675 -36.122193 2.026587 -9.635008 100.810728 4.551769 -12.113484 19.542481 0.000000 -0.000000 0.000000 -1.984614 -6.683509 19.906153 0.854642 -0.937756 -2.922031 -1.068831 -3.559804 2.117289 -0.323533 2.458123 -12.737863 1.154559 4.557667 -0.543821 -22.087476 -5.046591 0.520822 -54.100157 -16.014225 15.931095 19.451813 -58.754427 -0.581881 -2.253993 -11.408488 -11.316129 21.185638 -0.575726 -3.323195 53.270838 -5.531301 15.300425 -10.097507 26.711751 1.235321 16.867765 4.701641 -0.714396 
0.317030 1.988269 0.976538 4.742631 1.774893 72.364709 -7.577789 -4.796131 12.609370 -5.263033 -21.144194 14.069626 14.440216 18.755590 -21.627646 0.000000 -0.000000 0.000000 -11.161037 1.260741 -46.558092 1.570415 -13.562175 105.273134 3.427469 -12.266385 21.253434 0.000000 -0.000000 0.000000 -1.272812 -10.880213 23.441678 2.012877 -1.513436 -2.909402 -0.045741 -4.876092 1.754093 -1.582890 3.605415 -12.416667 0.982874 5.616696 -0.861863 -19.702478 -6.774490 0.416558 -53.904934 -19.429600 14.979140 24.130669 -60.505040 -4.349328 -2.249383 -10.965639 -12.810692 19.878758 -1.335204 -2.663775 51.481107 -8.537623 13.193986 -9.715476 25.141300 1.297705 18.082541 4.571547 -1.431072 
0.312355 1.952403 0.985954 7.910198 5.825834 70.506287 -2.166346 -2.930571 18.306291 -4.800680 -26.611365 12.214078 13.415485 18.137057 -23.033002 0.000000 -0.000000 0.000000 -12.907600 -0.436085 -57.737150 0.800698 -18.369668 105.577254 2.264705 -13.607142 23.158361 0.000000 -0.000000 0.000000 0.233604 -15.007532 25.898520 3.496847 -1.776051 -2.447222 1.028310 -6.413334 0.793150 -2.860040 4.280964 -11.893721 0.793889 6.448457 -1.049897 -17.462515 -8.452731 0.833873 -52.245946 -23.187442 13.789393 27.956346 -61.919935 -8.074105 -1.377328 -10.713982 -14.245117 18.406442 -3.035512 -1.901785 48.895241 -12.722288 11.927781 -9.274895 25.612847 2.148934 17.555425 4.644228 -1.856640 
0.309543 1.930636 0.990717 9.240557 7.884867 69.651791 0.825984 -2.364901 21.180576 -4.460672 -28.719492 11.283080 12.448642 17.723284 -23.941400 0.000000 -0.000000 0.000000 -14.101073 -1.535088 -62.156733 -0.118468 -20.856723 103.644202 2.480042 -14.514066 23.627328 0.000000 -0.000000 0.000000 1.077282 -16.782007 27.149265 4.158539 -1.834247 -2.327188 1.513652 -6.968754 0.357985 -3.281083 4.665753 -11.689355 0.772020 6.614356 -1.175564 -16.227481 -9.257296 0.809649 -51.078831 -24.988141 13.212355 29.245745 -62.197149 -9.216816 -1.201885 -10.659614 -14.603608 17.651583 -3.971944 -1.682267 47.955084 -15.071879 11.390150 -9.653103 25.890770 2.259662 18.158085 4.316078 -2.202285 
0.306137 1.902765 0.995283 10.348150 9.438171 68.881435 3.819248 -1.654232 23.920595 -4.650390 -30.377963 10.977806 10.926816 16.795526 -24.941615 0.000000 -0.000000 0.000000 -15.138114 -2.670743 -65.644165 -0.641480 -23.002197 99.340967 3.453100 -14.933478 23.550654 0.000000 -0.000000 0.000000 1.380469 -17.995871 28.417513 4.757072 -1.980951 -2.327040 2.046888 -7.458005 0.225719 -3.480949 5.321229 -11.551475 1.005432 6.525476 -1.508759 -14.743306 -10.025674 0.762143 -49.736162 -26.761740 12.281329 30.787544 -62.273823 -10.371162 -1.653419 -10.615175 -14.820414 16.951689 -4.896326 -1.330699 47.692399 -17.263636 10.513236 -10.804108 25.825628 2.214321 20.364086 3.477909 -2.845226 
0.303520 1.877023 0.997235 10.961468 9.609417 68.892788 5.263078 -1.258833 25.075386 -5.515050 -31.244694 11.815626 9.553586 15.563732 -25.477339 0.000000 -0.000000 0.000000 -15.466602 -3.209756 -67.160635 -0.845634 -23.744675 93.668072 3.744711 -16.272132 24.130548 0.000000 -0.000000 0.000000 1.042036 -18.303688 28.899728 4.937767 -2.155658 -2.585840 2.346147 -7.795969 0.435443 -3.507617 5.559633 -11.719317 1.470009 6.565499 -1.675319 -13.814781 -10.214239 0.986378 -48.640134 -27.975363 11.346848 31.573517 -62.186009 -11.155519 -1.508367 -10.787267 -15.170688 16.532009 -5.586545 -1.109777 48.202137 -18.446251 10.276999 -11.894399 25.553299 2.412692 22.065306 2.373231 -3.110542 
0.301529 1.852785 0.997156 11.066324 8.913538 69.461572 5.346813 -1.259545 25.718169 -6.057311 -31.977454 12.337802 8.259949 14.619339 -25.823400 0.000000 -0.000000 0.000000 -15.151718 -2.885419 -66.586507 -1.142991 -23.595806 86.906577 3.902213 -18.108768 24.928929 0.000000 -0.000000 0.000000 0.589237 -18.065584 28.733138 4.692693 -2.233342 -2.903505 2.417855 -7.929383 0.718377 -3.411983 5.461854 -11.959300 1.827637 6.617494 -1.824996 -13.469580 -9.784839 1.171452 -48.023610 -28.498864 11.058606 31.805330 -62.016831 -11.134502 -0.952599 -10.952977 -15.663568 16.376788 -6.005126 -1.177181 49.239782 -18.778139 10.576340 -11.992394 24.384623 2.051667 21.027949 2.891343 -4.571114 
0.300139 1.828995 0.994759 10.742628 7.687764 70.488598 4.460007 -1.123201 26.191901 -5.992125 -32.205964 12.193226 7.358270 14.120234 -26.049864 0.000000 -0.000000 0.000000 -14.304898 -1.954068 -64.310408 -0.883471 -22.637351 79.011470 4.539212 -18.896797 25.980930 0.000000 -0.000000 0.000000 0.252894 -17.364261 27.902789 4.172978 -2.257794 -3.306981 2.346333 -7.879611 1.128324 -3.340785 5.159559 -12.233927 2.047010 6.645129 -1.939672 -13.904058 -8.985477 1.411836 -47.691606 -28.531126 11.052403 30.864204 -61.887922 -10.515993 0.002484 -11.204353 -15.583852 16.728812 -6.249491 -1.385602 50.124309 -18.368030 10.916962 -10.947995 22.887005 1.020849 17.610216 5.056851 -6.071115 
0.298569 1.798935 0.988860 10.266062 5.762029 72.555619 2.546238 -0.936739 26.142423 -5.569086 -31.314699 11.707055 7.008321 13.909179 -26.503006 0.000000 -0.000000 0.000000 -12.866509 -0.599375 -59.781035 -0.219201 -20.233591 68.019013 5.162397 -20.156290 27.697646 0.000000 -0.000000 0.000000 -0.176314 -16.080414 25.893908 3.583405 -2.382005 -3.645440 2.199314 -7.634632 1.503513 -3.304861 4.385825 -12.794530 2.208985 6.838072 -1.749979 -14.778916 -7.637937 1.723846 -48.100285 -27.610002 11.516006 28.675663 -62.135976 -8.849460 0.125041 -11.514973 -15.552492 17.337994 -6.632331 -1.819482 51.385550 -17.604105 12.042229 -11.249790 23.423982 0.358163 17.609780 5.054985 -6.079803 
